<?xml version="1.0" encoding="utf-8"?>
<!-- Generated by IcoMoon.io -->
<!DOCTYPE svg PUBLIC "-//W3C//DTD SVG 1.1//EN" "http://www.w3.org/Graphics/SVG/1.1/DTD/svg11.dtd">
<svg version="1.1" xmlns="http://www.w3.org/2000/svg" xmlns:xlink="http://www.w3.org/1999/xlink" width="32" height="32" viewBox="0 0 32 32">
<path fill="#444" d="M16 12q1.625 0 2.813 1.188t1.188 2.813-1.188 2.813-2.813 1.188-2.813-1.188-1.188-2.813 1.188-2.813 2.813-1.188zM16 22.688q2.75 0 4.719-1.969t1.969-4.719-1.969-4.719-4.719-1.969-4.719 1.969-1.969 4.719 1.969 4.719 4.719 1.969zM16 6q4.938 0 8.938 2.75t5.75 7.25q-1.75 4.5-5.75 7.25t-8.938 2.75-8.938-2.75-5.75-7.25q1.75-4.5 5.75-7.25t8.938-2.75z"></path>
</svg>
